inDegrees=no
num_controls=7
num_derivatives=13
num_iterations=100
num_multipliers=7
num_parameters=0
num_slacks=7
num_states=26
objective=0.479350
objective_accelerations=0.010931
objective_balance=0.000374
objective_effort=0.007664
objective_height=0.451288
objective_ligament=0.009094
solver_duration=1473.559829
status=Solve_Succeeded
success=true
DataType=double
version=3
OpenSimVersion=4.5
endheader
time	/jointset/ground_pelvis/pelvis_tilt/value	/jointset/ground_pelvis/pelvis_tx/value	/jointset/ground_pelvis/pelvis_ty/value	/jointset/hip_l/hip_flexion_l/value	/jointset/hip_l/hip_adduction_l/value	/jointset/hip_l/hip_rotation_l/value	/jointset/back/lumbar_extension/value	/jointset/patellofemoral_l/patellar_flexion_l/value	/jointset/knee_l/knee_flexion_l/value	/jointset/knee_l/knee_adduction_l/value	/jointset/knee_l/knee_rotation_l/value	/jointset/ankle_l/ankle_angle_l/value	/jointset/subtalar_l/subtalar_angle_l/value	/jointset/ground_pelvis/pelvis_tilt/speed	/jointset/ground_pelvis/pelvis_tx/speed	/jointset/ground_pelvis/pelvis_ty/speed	/jointset/hip_l/hip_flexion_l/speed	/jointset/hip_l/hip_adduction_l/speed	/jointset/hip_l/hip_rotation_l/speed	/jointset/back/lumbar_extension/speed	/jointset/patellofemoral_l/patellar_flexion_l/speed	/jointset/knee_l/knee_flexion_l/speed	/jointset/knee_l/knee_adduction_l/speed	/jointset/knee_l/knee_rotation_l/speed	/jointset/ankle_l/ankle_angle_l/speed	/jointset/subtalar_l/subtalar_angle_l/speed	/forceset/tau_hip_flexion_l	/forceset/tau_hip_adduction_l	/forceset/tau_hip_rotation_l	/forceset/tau_knee_flexion_l	/forceset/tau_ankle_angle_l	/forceset/tau_subtalar_angle_l	/forceset/tau_lumbar_extension	lambda_cid13_p0	lambda_cid13_p1	lambda_cid13_p2	lambda_cid13_p3	lambda_cid13_p4	lambda_cid13_p5	lambda_cid14_p0	/jointset/ground_pelvis/pelvis_tilt/accel	/jointset/ground_pelvis/pelvis_tx/accel	/jointset/ground_pelvis/pelvis_ty/accel	/jointset/hip_l/hip_flexion_l/accel	/jointset/hip_l/hip_adduction_l/accel	/jointset/hip_l/hip_rotation_l/accel	/jointset/back/lumbar_extension/accel	/jointset/patellofemoral_l/patellar_flexion_l/accel	/jointset/knee_l/knee_flexion_l/accel	/jointset/knee_l/knee_adduction_l/accel	/jointset/knee_l/knee_rotation_l/accel	/jointset/ankle_l/ankle_angle_l/accel	/jointset/subtalar_l/subtalar_angle_l/accel	gamma_cid13_p0	gamma_cid13_p1	gamma_cid13_p2	gamma_cid13_p3	gamma_cid13_p4	gamma_cid13_p5	gamma_cid14_p0
1.5	0.0350122577524495	0.1800449284274967	0.8894519506335928	0.1560480898366859	-0.3360103261311709	-0.229140151339896	-0.2379582183012676	0.3810513150883708	0.3810513150883565	-0.04549142928220978	-0.1736168982421544	0.283218691641699	0.1907089328580193	-0.4639070091944161	-0.02410765122570151	0.07422548429332915	-4.321176150384439e-05	0.1202249529598357	-0.2810669524801854	0.5693730902670351	-0.9788299790533067	-0.9788299790530669	-0.02957953626003836	0.0143343583201125	-0.5605834942540171	-0.09097773502085704	0.02928377779271709	0.02564327969810387	0.0004509541966418971	-0.1242343206769454	-0.07282230967167876	-0.009181963541972959	0.0223892790582382	-50.06667288600117	8.405291004564592	3.346271986137166	6.746142148815509	-455.7441343887883	-61.35055785587028	-24.54006770728779	-0.2483947132784049	-0.1867898972483555	-0.1507739707645348	0.1475473986007751	0.1285365839645074	-0.03002416428404524	0.1648894568396713	-0.6569426203513565	-0.6569426203513438	-0.1461195214907343	0.1366068134896284	-0.5487737730483172	0.0007131127761517584	-1.857877760748696e-08	-5.095405771266938e-08	1.128818771261603e-07	-1.402095298429308e-09	-3.803560623594423e-08	-1.581276797937223e-07	-1.333081198548917e-08
1.51	0.0303612126314406	0.1797945780637183	0.8901864573303471	0.1560553101523851	-0.3348017309270017	-0.2319521045411019	-0.2322568090163947	0.3712316850819168	0.3712316850819594	-0.04579423264269927	-0.173466810806302	0.2775863390648095	0.1897995070239054	-0.4662446731592357	-0.02595584222729733	0.0726581604283066	0.001489069372078867	0.1214786574665607	-0.2812842767933907	0.5708362351313002	-0.9849619424452566	-0.9849619424452022	-0.03097690537741787	0.01568713105277655	-0.5658047106934407	-0.09089103500956768	0.02897385938108446	0.02465656800846515	0.0003596421135248887	-0.1218146980390035	-0.07129198897287314	-0.009538269372731478	0.02198121904219189	-49.54447977616898	8.384803996977329	3.445255943197782	6.459750633338469	-455.0991462082095	-61.46062604005905	-24.68002039997399	-0.2178529520658934	-0.18284723795824	-0.1623718695356539	0.1563352730549424	0.1214548265270442	-0.01168985026471344	0.1261472647772946	-0.5712084214549048	-0.5712084214827511	-0.1359059575980218	0.1352297178999489	-0.4964532932607993	0.01510247780328609	-1.807148276253796e-08	-5.077347217574291e-08	1.142084246567773e-07	-1.901420810393885e-09	-3.299869867533391e-08	-1.580319808602923e-07	-1.380079504649608e-08
1.52	0.02568851072798949	0.1795259430826553	0.8909047587334181	0.1560779066398892	-0.3335810651892647	-0.2347650516425253	-0.226542944230166	0.361354758396993	0.3613547583970622	-0.04611088176452571	-0.1733030722001469	0.2719042427807518	0.1888914389964039	-0.4682383656833463	-0.02776457468262512	0.07098442555670703	0.003032022598374276	0.1226390596733094	-0.281265732523631	0.5718641905378608	-0.9902893147507306	-0.9902893147508617	-0.03234868852425578	0.01706459237524536	-0.5705322356877207	-0.09070617369836012	0.02866394096949627	0.02366985631881572	0.0002683300302122783	-0.1193950754010406	-0.06976166827406428	-0.00989457520349976	0.02157315902618418	-49.02600070246655	8.366535124634778	3.542095744479961	6.18499123136137	-454.5018113405555	-61.57592003348697	-24.81262557389665	-0.1796004251366055	-0.1788981879947546	-0.1720561720799358	0.1496818171433152	0.109876123969253	0.0171495523089545	0.07785156529874128	-0.4960244030561428	-0.4960244030561428	-0.1410023273824137	0.1415445314505849	-0.4500354840195914	0.02034537275978582	-1.734984069343612e-08	-5.343087199336794e-08	1.1686767060307e-07	-2.779070939653608e-09	-2.800706803654383e-08	-1.607077007549015e-07	-1.449568450124491e-08
1.53	0.02099766672735575	0.1792394311009342	0.8916058169358676	0.1561159035664776	-0.3323492495900596	-0.2375766463663673	-0.2208210386838239	0.3514285997054638	0.3514285997054559	-0.04644106756556667	-0.1731254368285703	0.2661773727338227	0.1879857288114951	-0.4698688511846219	-0.02953008279534639	0.06921133569738827	0.004568111594398901	0.123708415194113	-0.2810151350157402	0.5724415553048425	-0.994800066730733	-0.9948000667309318	-0.03367934318525077	0.01846380330311116	-0.5747538049463018	-0.09041831619170747	0.02834816835068188	0.02263578813320677	0.0001732610115287931	-0.1169865213296197	-0.06816668962617076	-0.01021763630376264	0.02117486640417191	-48.48298557379773	8.330950906612152	3.640075013481878	5.878684606076107	-453.8987639591468	-61.73215638185602	-24.93802493368542	-0.145537358605076	-0.1742172417491047	-0.1823213616274281	0.1556823339227497	0.1031004070190195	0.03470990085889605	0.03637441855402167	-0.4072438860710059	-0.4072438860812124	-0.1277234534756921	0.1393257772720025	-0.3950267343743619	0.03563327910016493	-1.640045469867189e-08	-5.910363125020391e-08	1.209429086160183e-07	-4.058690974789421e-09	-2.306354412718776e-08	-1.663280531543023e-07	-1.542953699934452e-08
1.54	0.01629236492251516	0.1789354960143182	0.89228866704597	0.1561692833616467	-0.3311072134074694	-0.2403845961049646	-0.21509562039258	0.3414616048360252	0.3414616048359213	-0.04678428519683171	-0.1729337660669327	0.2604109251767885	0.1870834226695494	-0.4711299265251835	-0.0312491956616099	0.06734280708728566	0.006108596314047917	0.1246831763502418	-0.2805367354746574	0.5725667395180704	-0.9984565503346851	-0.998456550334952	-0.03495505456695153	0.01987167038367302	-0.5784477377087625	-0.09002536510576828	0.02803239573187439	0.02160171994759349	7.819199270571827e-05	-0.1145779672581936	-0.06657171097827655	-0.01054069740402878	0.02077657378216777	-47.94313986192032	8.2978995937306	3.735391472908526	5.582965313493062	-453.3330951875894	-61.89079899202438	-25.05597927938918	-0.1057183929938126	-0.1696191387032133	-0.1911439222367059	0.1505609618681945	0.09095725103430025	0.06270995894736534	-0.0125845454520551	-0.3251707278461233	-0.3251707278461288	-0.1300136715235648	0.1432757619898032	-0.3445081847954923	0.04136408861709048	-1.344634315625416e-08	-5.090805339213003e-08	1.059332923296377e-07	-4.193031276273471e-09	-1.260992527895624e-08	-1.44360480147001e-07	-1.380547014564912e-08
1.55	0.01157643893174886	0.178614623174332	0.8929523957417899	0.1562378256058701	-0.3298559592627405	-0.2431865669815461	-0.209371325117479	0.3314621892038976	0.3314621892038616	-0.04714014420400962	-0.1727279443157573	0.254610134015458	0.1861854650019258	-0.4719910509051904	-0.03291611878051658	0.0653890651533084	0.007599179826664601	0.1255501749698029	-0.2798207336714425	0.5722175061609603	-1.001278183714096	-1.001278183714364	-0.03620684938634335	0.02129035577141399	-0.5816181965357607	-0.08955005332028769	0.02770779697732945	0.02054103202425865	-1.953138863034754e-05	-0.1121944274313037	-0.06491208742544491	-0.01084592271764675	0.02039466328724333	-47.38193306125385	8.2563662215394	3.828628380302308	5.257542928913491	-452.7887913784523	-62.07599530832863	-25.16545311980523	-0.06667808533247099	-0.1638413351273	-0.1995666621074339	0.1482046321165099	0.08194049227762733	0.08154502885029956	-0.05731413199538599	-0.2383994476608181	-0.2383994476609698	-0.1212739738443644	0.1408235311468392	-0.2894713114084068	0.05302835844398306	-8.182439135018414e-09	-2.673373929296525e-08	6.893460478533588e-08	-3.007810145506648e-09	4.192281216240142e-09	-9.060681917110986e-08	-9.234235343146577e-09
